<svg width="290" height="68.72498917572207" viewBox="0 0 290 68.72498917572207" class="css-1j8o68f"><defs id="SvgjsDefs1320"><linearGradient id="SvgjsLinearGradient1327"><stop id="SvgjsStop1328" stop-color="#8f5e25" offset="0"></stop><stop id="SvgjsStop1329" stop-color="#fbf4a1" offset="0.5"></stop><stop id="SvgjsStop1330" stop-color="#8f5e25" offset="1"></stop></linearGradient><linearGradient id="SvgjsLinearGradient1331"><stop id="SvgjsStop1332" stop-color="#b88746" offset="0"></stop><stop id="SvgjsStop1333" stop-color="#fdf5a6" offset="1"></stop></linearGradient></defs><g id="SvgjsG1321" featurekey="LwVBM5-0" transform="matrix(0.8044876448772905,0,0,0.8044876448772905,-5.796627648528377,-6.151851006205796)" fill="url(#SvgjsLinearGradient1327)"><g xmlns="http://www.w3.org/2000/svg"><g><path d="M48.934,31.92c0.781,0,4.377-3.021,5.213-4.293c0.416-0.633,0.711-1.326,0.662-2.242    c-0.088-1.619-1.411-2.956-3.033-2.956c-1.595,0-2.607,1.78-2.846,1.78c-0.211,0-1.182-1.78-2.848-1.78    c-1.621,0-2.945,1.337-3.032,2.956c-0.049,0.916,0.245,1.611,0.661,2.242C44.541,28.887,48.172,31.92,48.934,31.92z"></path><path d="M63.5,35.759c-0.063,1.153,0.311,2.033,0.835,2.828c1.048,1.59,5.63,5.418,6.593,5.418c0.984,0,5.524-3.813,6.579-5.418    c0.526-0.799,0.897-1.675,0.835-2.828c-0.109-2.046-1.779-3.732-3.827-3.732c-2.013,0-3.292,2.244-3.594,2.244    c-0.265,0-1.489-2.244-3.595-2.244C65.28,32.026,63.609,33.713,63.5,35.759z"></path><path d="M64.621,19.046c0.631,0,3.539-2.442,4.214-3.469c0.336-0.513,0.573-1.073,0.534-1.813    c-0.07-1.309-1.141-2.388-2.451-2.388c-1.289,0-2.107,1.437-2.301,1.437c-0.17,0-0.954-1.437-2.303-1.437    c-1.31,0-2.38,1.079-2.449,2.388c-0.04,0.74,0.197,1.303,0.533,1.813C61.07,16.594,64.004,19.046,64.621,19.046z"></path><path d="M93.697,58.331c-1.756-6.274-8.115-10.362-14.475-8.944c-6.257,1.395-8.672,9.254-9.61,9.464    c-0.821,0.183-6.183-5.942-12.721-4.487c-6.358,1.42-10.383,7.82-9.307,14.245c0.608,3.63,2.373,6.103,4.554,8.213    c4.355,4.215,21.242,12.935,24.235,12.267c3.058-0.682,14.522-15.676,16.688-21.389C94.143,64.852,94.689,61.875,93.697,58.331z"></path><path d="M49.204,79.854c-2.057-1.988-4.894-5.247-5.781-10.548c-0.698-4.168,0.183-8.426,2.482-11.986    c2.349-3.638,5.925-6.15,10.068-7.073c0.97-0.217,1.966-0.327,2.962-0.327c3.846,0,6.859,1.503,9.166,2.974    c0.176,0.107,0.289,0.002,0.256-0.068c-2.238-4.463-5.984-8.003-11.129-9.15c-8.762-1.951-15.946,6.26-17.048,6.013    c-1.258-0.28-4.495-10.813-12.879-12.683c-8.522-1.899-17.047,3.579-19.399,11.986c-1.329,4.751-0.596,8.738,0.852,12.556    c2.902,7.656,18.268,27.75,22.365,28.662c2.52,0.563,11.727-3.467,20.127-8.196c0.203-0.14,0.18-0.309,0.047-0.406    C50.443,80.98,49.826,80.456,49.204,79.854z"></path></g></g></g><g id="SvgjsG1322" featurekey="YhTCwJ-0" transform="matrix(2.6490066225165565,0,0,2.6490066225165565,88.56953589332025,-14.092714423375416)" fill="#f7fbfc"><path d="M4.3 20 l0 -12.48 l-3.76 0 l0 -1.76 l9.32 0 l0 1.76 l-3.76 0 l0 12.48 l-1.8 0 z M12.16 10.84 l0 0.94 c0.58 -0.64 2.28 -1.14 3.34 -1.14 l-0.42 1.72 c-1.6 0 -2.92 1.22 -2.92 2.76 l0 4.88 l-1.72 0 l0 -9.16 l1.72 0 z M18.44 19.02 c-0.8 -0.78 -1.24 -1.82 -1.24 -2.94 l0 -5.24 l1.72 0 l0 5.24 c0 1.34 1.12 2.44 2.52 2.44 c1.38 0 2.52 -1.1 2.52 -2.44 l0 -5.24 l1.72 0 l0 5.24 c0 1.12 -0.46 2.16 -1.26 2.94 s-1.86 1.18 -2.98 1.18 c-1.14 0 -2.2 -0.4 -3 -1.18 z M36.14 14.379999999999999 c0.14 0.82 0.12 1.28 0.1 1.46 l-7.06 0 l0 0.04 c0.2 1.52 1.34 2.66 2.66 2.68 c0.82 -0.04 1.66 -0.38 2.24 -0.96 l1.44 0.86 c-0.36 0.4 -0.76 0.74 -1.22 1.02 c-0.7 0.42 -1.56 0.64 -2.42 0.68 c-1.2 0 -2.3 -0.5 -3.1 -1.4 c-0.72 -0.78 -1.16 -1.78 -1.24 -2.88 c-0.02 -0.14 -0.02 -0.28 -0.02 -0.42 c0 -0.36 0.04 -0.72 0.12 -1.08 c0.18 -0.84 0.58 -1.6 1.14 -2.22 c0.8 -0.88 1.92 -1.38 3.1 -1.38 c1.2 0 2.3 0.5 3.12 1.38 c0.56 0.62 0.98 1.38 1.14 2.22 z M29.320000000000004 14.4 l5.12 0 l-0.02 -0.04 c-0.4 -1.18 -1.42 -1.98 -2.54 -1.98 c-1.1 0 -2.12 0.8 -2.54 1.98 z M43.26 20 l0 -14.24 l1.8 0 l0 14.24 l-1.8 0 z M54.019999999999996 15.9 c0.28 0.4 0.42 0.88 0.42 1.4 s-0.14 1.02 -0.44 1.44 c-0.28 0.42 -0.68 0.74 -1.22 1 c-0.48 0.22 -1.06 0.34 -1.64 0.34 c-0.32 0 -0.62 -0.04 -0.94 -0.1 c-1 -0.2 -1.94 -0.64 -2.74 -1.32 l1.08 -1.18 c1.06 0.9 1.96 1.08 2.52 1.08 c0.38 0 0.74 -0.08 1.06 -0.22 c0.26 -0.12 0.72 -0.42 0.72 -1.04 s-0.54 -1 -1.78 -1.22 c-0.06 -0.02 -1.58 -0.3 -2.14 -0.62 c-0.84 -0.48 -1.28 -1.22 -1.28 -2.14 c0 -0.5 0.16 -0.98 0.44 -1.4 c0.26 -0.36 0.62 -0.64 1.14 -0.88 c0.48 -0.22 1 -0.34 1.58 -0.34 c0.22 0 0.46 0.02 0.68 0.04 c0.88 0.14 1.74 0.52 2.46 1.1 l-1 1.16 c-0.9 -0.7 -1.68 -0.8 -2.06 -0.8 c-0.36 0 -0.7 0.06 -0.98 0.2 c-0.4 0.2 -0.66 0.56 -0.66 0.92 c0 0.6 0.48 0.92 1.7 1.18 c0.02 0 1.66 0.36 2.12 0.62 c0.54 0.28 0.74 0.5 0.96 0.78 z M63.599999999999994 11.94 c0.82 0.84 1.28 1.94 1.28 3.14 l0 4.92 l-1.72 0 l0 -4.92 c0 -1.5 -1.2 -2.74 -2.7 -2.74 c-1.48 0 -2.7 1.24 -2.7 2.74 l0 4.92 l-1.72 0 l0 -14.68 l1.72 0 l0 6.4 c0.78 -0.6 1.72 -1.06 2.7 -1.06 c1.18 0 2.3 0.44 3.14 1.28 z M74.32 11.9 l0 -1.06 l1.72 0 l0 14.4 l-1.72 0 l0 -6.3 c-0.86 0.72 -1.94 1.26 -3.08 1.26 c-1.28 0 -2.48 -0.48 -3.4 -1.38 c-0.9 -0.92 -1.4 -2.12 -1.4 -3.4 s0.5 -2.48 1.4 -3.4 c0.92 -0.9 2.12 -1.38 3.4 -1.38 c1.14 0 2.22 0.54 3.08 1.26 z M71.24 18.52 c1.7 0 3.08 -1.4 3.08 -3.1 s-1.38 -3.1 -3.08 -3.1 s-3.08 1.4 -3.08 3.1 s1.38 3.1 3.08 3.1 z"></path></g><g id="SvgjsG1323" featurekey="duLK5n-0" transform="matrix(0.3842274221099031,0,0,0.3842274221099031,89.73872560213618,60.95591114770178)" fill="url(#SvgjsLinearGradient1331)"><path d="M8.14 18.46 c1.78 0 3.44 -0.82 4.54 -2.26 l1.4 1.04 c-1.42 1.9 -3.6 2.98 -5.94 2.98 c-4.12 0 -7.46 -3.34 -7.46 -7.46 c0 -4.1 3.34 -7.44 7.46 -7.44 c2.36 0 4.54 1.1 5.96 3 l-1.42 1.04 c-1.08 -1.46 -2.74 -2.28 -4.54 -2.28 c-3.16 0 -5.7 2.54 -5.7 5.68 c0 3.16 2.54 5.7 5.7 5.7 z M37.216 5.32 c4.1 0 7.46 3.34 7.46 7.46 c0 4.1 -3.36 7.42 -7.46 7.42 s-7.44 -3.32 -7.44 -7.42 c0 -4.12 3.34 -7.46 7.44 -7.46 z M37.216 18.44 c3.12 0 5.64 -2.56 5.64 -5.66 c0 -3.12 -2.52 -5.7 -5.64 -5.7 s-5.64 2.58 -5.64 5.7 c0 3.1 2.52 5.66 5.64 5.66 z M70.632 20 l-7.62 -11.26 l0 11.26 l-1.8 0 l0 -14.24 l1.96 0 l7.6 11.26 l0 -11.26 l1.8 0 l0 14.24 l-1.94 0 z M99.60800000000002 20 l-7.62 -11.26 l0 11.26 l-1.8 0 l0 -14.24 l1.96 0 l7.6 11.26 l0 -11.26 l1.8 0 l0 14.24 l-1.94 0 z M119.40400000000001 20 l0 -14.24 l9 0 l0 1.72 l-7.2 0 l0 3.34 l6.28 0 l0 1.78 l-6.28 0 l0 5.64 l7.02 0 l0 1.76 l-8.82 0 z M151.44 18.46 c1.78 0 3.44 -0.82 4.54 -2.26 l1.4 1.04 c-1.42 1.9 -3.6 2.98 -5.94 2.98 c-4.12 0 -7.46 -3.34 -7.46 -7.46 c0 -4.1 3.34 -7.44 7.46 -7.44 c2.36 0 4.54 1.1 5.96 3 l-1.42 1.04 c-1.08 -1.46 -2.74 -2.28 -4.54 -2.28 c-3.16 0 -5.7 2.54 -5.7 5.68 c0 3.16 2.54 5.7 5.7 5.7 z M176.69600000000003 20 l0 -12.48 l-3.76 0 l0 -1.76 l9.32 0 l0 1.76 l-3.76 0 l0 12.48 l-1.8 0 z M199.65200000000004 20 l0 -14.24 l1.8 0 l0 14.24 l-1.8 0 z M228.92800000000003 20 l-7.62 -11.26 l0 11.26 l-1.8 0 l0 -14.24 l1.96 0 l7.6 11.26 l0 -11.26 l1.8 0 l0 14.24 l-1.94 0 z M255.14400000000003 10.84 l5.92 0 l0 6.3 c-1.42 1.9 -3.66 3.08 -6.02 3.08 c-4.1 0 -7.44 -3.34 -7.44 -7.46 c0 -4.1 3.34 -7.44 7.44 -7.44 c2.02 0 3.9 0.8 5.28 2.2 l-1.32 1.16 c-1.04 -1.04 -2.46 -1.6 -3.96 -1.6 c-3.14 0 -5.68 2.54 -5.68 5.68 c0 3.16 2.54 5.7 5.68 5.7 c1.66 0 3.18 -0.7 4.28 -1.92 l0 -3.94 l-4.18 0 l0 -1.76 z M301.67600000000004 20.14 c-0.48 0 -0.96 -0.06 -1.44 -0.16 c-1.48 -0.3 -2.94 -1.04 -4.24 -2.16 l1.18 -1.34 c1.06 0.92 2.24 1.54 3.42 1.78 c1 0.22 1.98 0.14 2.76 -0.22 c0.52 -0.24 1.42 -0.84 1.42 -2.06 c0 -1.5 -1.6 -2.04 -3.16 -2.34 c-0.14 -0.02 -2.38 -0.48 -3.28 -1 c-1.2 -0.72 -1.84 -1.8 -1.84 -3.12 c0 -0.74 0.24 -1.44 0.66 -2.06 c0.42 -0.56 1 -1.02 1.68 -1.34 c1 -0.48 2.18 -0.62 3.38 -0.42 c1.3 0.22 2.62 0.84 3.78 1.8 l-1.14 1.38 c-2.06 -1.7 -4.06 -1.74 -5.26 -1.18 c-0.82 0.38 -1.3 1.08 -1.3 1.8 c0 1.36 1.16 1.88 3 2.28 c0.76 0.18 2.34 0.44 3.28 0.98 c1.3 0.72 1.98 1.84 1.98 3.22 c0 0.82 -0.22 1.58 -0.68 2.24 c-0.42 0.6 -1.06 1.06 -1.78 1.42 c-0.76 0.38 -1.54 0.5 -2.42 0.5 z M329.97200000000004 5.32 c4.1 0 7.46 3.34 7.46 7.46 c0 4.1 -3.36 7.42 -7.46 7.42 s-7.44 -3.32 -7.44 -7.42 c0 -4.12 3.34 -7.46 7.44 -7.46 z M329.97200000000004 18.44 c3.12 0 5.64 -2.56 5.64 -5.66 c0 -3.12 -2.52 -5.7 -5.64 -5.7 s-5.64 2.58 -5.64 5.7 c0 3.1 2.52 5.66 5.64 5.66 z M362.588 5.76 l1.8 0 l0 9.02 c0 3 -2.44 5.42 -5.44 5.42 c-2.98 0 -5.42 -2.42 -5.42 -5.42 l0 -9.02 l1.78 0 l0 9.02 c0 2.02 1.64 3.68 3.64 3.68 c2.02 0 3.64 -1.66 3.64 -3.68 l0 -9.02 z M381.54400000000004 20 l0 -14.24 l1.8 0 l0 12.5 l7.8 0 l0 1.74 l-9.6 0 z M412.2200000000001 20.14 c-0.48 0 -0.96 -0.06 -1.44 -0.16 c-1.48 -0.3 -2.94 -1.04 -4.24 -2.16 l1.18 -1.34 c1.06 0.92 2.24 1.54 3.42 1.78 c1 0.22 1.98 0.14 2.76 -0.22 c0.52 -0.24 1.42 -0.84 1.42 -2.06 c0 -1.5 -1.6 -2.04 -3.16 -2.34 c-0.14 -0.02 -2.38 -0.48 -3.28 -1 c-1.2 -0.72 -1.84 -1.8 -1.84 -3.12 c0 -0.74 0.24 -1.44 0.66 -2.06 c0.42 -0.56 1 -1.02 1.68 -1.34 c1 -0.48 2.18 -0.62 3.38 -0.42 c1.3 0.22 2.62 0.84 3.78 1.8 l-1.14 1.38 c-2.06 -1.7 -4.06 -1.74 -5.26 -1.18 c-0.82 0.38 -1.3 1.08 -1.3 1.8 c0 1.36 1.16 1.88 3 2.28 c0.76 0.18 2.34 0.44 3.28 0.98 c1.3 0.72 1.98 1.84 1.98 3.22 c0 0.82 -0.22 1.58 -0.68 2.24 c-0.42 0.6 -1.06 1.06 -1.78 1.42 c-0.76 0.38 -1.54 0.5 -2.42 0.5 z"></path></g></svg>